<svg width="20" height="12" viewBox="0 0 20 12" fill="none" xmlns="http://www.w3.org/2000/svg">
<g clip-path="url(#clip0_63_430)">
<path fill-rule="evenodd" clip-rule="evenodd" d="M19.6932 11.0262L19.6932 11.0257C19.6903 11.0071 19.6874 10.9886 19.6846 10.9686C19.6446 10.7343 19.5989 10.5 19.5417 10.2657C19.4446 9.85998 19.3189 9.4657 19.1703 9.08856C19.0446 8.76284 18.9017 8.44855 18.7417 8.1457C18.536 7.75713 18.3074 7.37998 18.0503 7.01998C17.736 6.57998 17.3874 6.17427 17.0103 5.79141C16.8503 5.63141 16.6846 5.47713 16.5132 5.33427C16.1417 5.01427 15.7474 4.72284 15.3303 4.4657C15.3332 4.46284 15.3346 4.45998 15.336 4.45713C15.3374 4.45427 15.3389 4.45141 15.3417 4.44855C15.436 4.28291 15.5316 4.11869 15.6273 3.95448L15.6274 3.95427L15.6276 3.95406C15.7232 3.78984 15.8189 3.62563 15.9132 3.45998C16.0456 3.23525 16.1752 3.01052 16.306 2.7838L16.3062 2.78339C16.3615 2.68742 16.4171 2.5911 16.4732 2.49427C16.5389 2.37998 16.606 2.26427 16.6732 2.14855C16.7403 2.03284 16.8074 1.91712 16.8732 1.80284C16.9074 1.7457 16.9303 1.69427 16.9474 1.63141C16.9989 1.47141 17.0046 1.29998 16.9589 1.13998C16.9474 1.09998 16.936 1.05998 16.9189 1.0257C16.9017 0.985696 16.8846 0.951411 16.8617 0.917125C16.7932 0.797125 16.6903 0.694269 16.5589 0.619983C16.4446 0.551412 16.3189 0.511411 16.1874 0.499983C16.1303 0.494268 16.0789 0.494268 16.0217 0.499983L16.0217 0.499983C15.976 0.505697 15.9303 0.511411 15.8903 0.52284C15.7303 0.56284 15.5874 0.648553 15.4732 0.774268C15.4332 0.819982 15.3932 0.871411 15.3646 0.92284C15.2989 1.03712 15.2317 1.15284 15.1646 1.26855C15.0974 1.38427 15.0303 1.49998 14.9646 1.61427L14.4046 2.57998C14.3103 2.7457 14.2146 2.90998 14.1189 3.07426L14.1189 3.07429C14.0231 3.23857 13.9274 3.40285 13.8332 3.56855C13.8217 3.5857 13.8117 3.60427 13.8017 3.62284C13.7917 3.64141 13.7817 3.65998 13.7703 3.67713L13.6846 3.64284C12.6332 3.24284 11.496 3.0257 10.3017 3.0257H10.2046C9.14744 3.03712 8.1303 3.21998 7.17601 3.55141L6.8503 3.67141C6.84173 3.65427 6.83173 3.63713 6.82173 3.61998C6.81173 3.60284 6.80173 3.5857 6.79315 3.56855C6.69887 3.40285 6.60317 3.23857 6.50746 3.0743L6.50744 3.07427L6.50742 3.07424C6.41171 2.90996 6.316 2.74569 6.22172 2.57998C6.08926 2.3552 5.95962 2.13041 5.82883 1.90364L5.82876 1.90352L5.82857 1.90318C5.77326 1.80728 5.71774 1.71103 5.66173 1.61427C5.596 1.49997 5.52885 1.38424 5.4617 1.26852L5.46167 1.26846C5.39455 1.15277 5.32742 1.03709 5.26173 0.92284C5.22744 0.865697 5.19315 0.819982 5.15315 0.774268C5.03887 0.648553 4.8903 0.56284 4.73601 0.52284C4.69592 0.512818 4.65584 0.507191 4.61961 0.502104L4.60458 0.499983C4.54744 0.494268 4.49601 0.494268 4.43887 0.499983C4.30744 0.511411 4.18172 0.551412 4.06744 0.619983C3.94172 0.694269 3.83887 0.797125 3.76458 0.917125C3.74172 0.951411 3.72458 0.985696 3.70744 1.0257C3.6903 1.0657 3.67887 1.09998 3.66744 1.13998C3.62744 1.29998 3.62744 1.4657 3.67887 1.63141C3.69601 1.68855 3.72458 1.7457 3.75315 1.80284C3.81886 1.91712 3.886 2.03283 3.95314 2.14854C4.02029 2.26426 4.08744 2.37998 4.15315 2.49427C4.28565 2.71911 4.41532 2.94395 4.54614 3.17077L4.54617 3.17082C4.60153 3.2668 4.65709 3.36314 4.71315 3.45998C4.80743 3.62568 4.90313 3.78995 4.99884 3.95422L4.99887 3.95427C5.09458 4.11855 5.1903 4.28284 5.28458 4.44855L5.2903 4.45427C4.90744 4.69427 4.54172 4.95713 4.19315 5.24855C3.98744 5.41998 3.78744 5.60284 3.59887 5.79141C3.21601 6.16855 2.87315 6.57998 2.55887 7.01998C2.30172 7.37998 2.07315 7.75141 1.86744 8.1457C1.70744 8.44855 1.56458 8.76284 1.43887 9.08856C1.2903 9.47141 1.16458 9.8657 1.06744 10.2657C1.0103 10.4943 0.964581 10.7286 0.924581 10.9686C0.921724 10.9886 0.918867 11.0071 0.91601 11.0257C0.913153 11.0443 0.910296 11.0628 0.907439 11.0828C0.884582 11.22 0.867439 11.3571 0.850296 11.5H19.736C19.736 11.3571 19.7189 11.22 19.7017 11.0828C19.6989 11.063 19.6961 11.0446 19.6932 11.0262ZM15.2217 8.88286C15.5989 8.63143 15.656 8.04858 15.3417 7.58572C15.0331 7.11715 14.4731 6.94572 14.096 7.19715C13.7189 7.44857 13.6617 8.03143 13.976 8.49429C14.2846 8.96286 14.8446 9.13429 15.2217 8.88286ZM6.54171 7.20287C6.91886 7.45429 6.97029 8.03144 6.66171 8.50001C6.34743 8.96286 5.79314 9.14001 5.416 8.88858C5.03886 8.63715 4.98743 8.06001 5.296 7.59144C5.60457 7.12287 6.16457 6.95144 6.54171 7.20287Z" fill="#A0A0AB"/>
</g>
<defs>
<clipPath id="clip0_63_430">
<rect width="18.8686" height="11" fill="white" transform="translate(0.867432 0.5)"/>
</clipPath>
</defs>
</svg>
