<svg width="13" height="14" viewBox="0 0 13 14" fill="none" xmlns="http://www.w3.org/2000/svg">
<path d="M11.7696 4.77209C11.312 5.05227 10.9329 5.44396 10.6679 5.91053C10.4028 6.37709 10.2606 6.90327 10.2542 7.4398C10.256 8.04367 10.435 8.63373 10.7688 9.13693C11.1027 9.64013 11.5768 10.0343 12.1325 10.2707C11.9134 10.9776 11.5892 11.6475 11.1706 12.2579C10.5718 13.1199 9.94571 13.9818 8.99305 13.9818C8.04031 13.9818 7.79531 13.4283 6.69738 13.4283C5.62671 13.4283 5.24558 14 4.3745 14C3.50342 14 2.89555 13.2015 2.19685 12.2215C1.27391 10.8488 0.766666 9.23887 0.735992 7.58493C0.735992 4.86285 2.50539 3.42019 4.24746 3.42019C5.17298 3.42019 5.94431 4.02805 6.52498 4.02805C7.07851 4.02805 7.94051 3.38381 8.99305 3.38381C9.53418 3.36985 10.0704 3.48917 10.5546 3.73126C11.0388 3.97335 11.456 4.33079 11.7696 4.77209ZM8.49398 2.23151C8.95798 1.68572 9.22058 0.99726 9.23805 0.281135C9.23885 0.186728 9.22971 0.0925 9.21085 0C8.41385 0.0778513 7.67685 0.457701 7.15105 1.06163C6.68265 1.58567 6.41011 2.25575 6.37978 2.95798C6.38011 3.04338 6.38925 3.12852 6.40705 3.21205C6.46985 3.22393 6.53365 3.23002 6.59758 3.23024C6.96485 3.20101 7.32238 3.09741 7.64838 2.92572C7.97445 2.75403 8.26211 2.51784 8.49398 2.23151Z" fill="#A0A0AB"/>
</svg>
