<svg width="128" height="128" viewBox="0 0 128 128" fill="none" xmlns="http://www.w3.org/2000/svg">
<g clip-path="url(#clip0_3204_214)">
<path d="M0 64C0 28.6538 28.6538 0 64 0C99.3462 0 128 28.6538 128 64C128 99.3462 99.3462 128 64 128C28.6538 128 0 99.3462 0 64Z" fill="#212129"/>
<mask id="path-2-inside-1_3204_214" fill="white">
<path d="M64 8C64 3.58172 67.5955 -0.0515118 71.9793 0.49935C79.5731 1.45357 86.9563 3.76508 93.7697 7.34519C100.583 10.9253 106.675 15.6944 111.768 21.4068C114.709 24.7045 113.756 29.7266 110.118 32.2329C106.479 34.7393 101.54 33.7629 98.4646 30.5905C94.937 26.9516 90.8435 23.882 86.3272 21.5089C81.811 19.1358 76.961 17.5059 71.9631 16.6651C67.606 15.9321 64 12.4183 64 8Z"/>
</mask>
<path d="M64 8C64 3.58172 67.5955 -0.0515118 71.9793 0.49935C79.5731 1.45357 86.9563 3.76508 93.7697 7.34519C100.583 10.9253 106.675 15.6944 111.768 21.4068C114.709 24.7045 113.756 29.7266 110.118 32.2329C106.479 34.7393 101.54 33.7629 98.4646 30.5905C94.937 26.9516 90.8435 23.882 86.3272 21.5089C81.811 19.1358 76.961 17.5059 71.9631 16.6651C67.606 15.9321 64 12.4183 64 8Z" fill="#F3496B" stroke="#212129" stroke-width="6" mask="url(#path-2-inside-1_3204_214)"/>
<mask id="path-3-inside-2_3204_214" fill="white">
<path d="M117.486 80.5903C121.706 81.8993 124.111 86.4098 122.286 90.4336C117.704 100.538 110.551 109.323 101.484 115.875C92.4167 122.426 81.8307 126.459 70.7984 127.638C66.4051 128.107 62.8776 124.408 62.9597 119.99C63.0418 115.573 66.7126 112.127 71.0825 111.475C78.6391 110.347 85.8578 107.426 92.1129 102.906C98.3679 98.3861 103.408 92.4495 106.851 85.629C108.842 81.6847 113.266 79.2814 117.486 80.5903Z"/>
</mask>
<path d="M117.486 80.5903C121.706 81.8993 124.111 86.4098 122.286 90.4336C117.704 100.538 110.551 109.323 101.484 115.875C92.4167 122.426 81.8307 126.459 70.7984 127.638C66.4051 128.107 62.8776 124.408 62.9597 119.99C63.0418 115.573 66.7126 112.127 71.0825 111.475C78.6391 110.347 85.8578 107.426 92.1129 102.906C98.3679 98.3861 103.408 92.4495 106.851 85.629C108.842 81.6847 113.266 79.2814 117.486 80.5903Z" fill="#36914D" stroke="#212129" stroke-width="6" mask="url(#path-3-inside-2_3204_214)"/>
<mask id="path-4-inside-3_3204_214" fill="white">
<path d="M119.235 54.7749C123.593 54.047 127.769 56.9949 127.948 61.4096C128.134 66.0053 127.824 70.6079 127.024 75.1373C126.255 79.4881 121.721 81.8498 117.5 80.5444C113.279 79.2391 110.988 74.7559 111.575 70.3768C111.855 68.2817 111.997 66.1704 112 64.0566C112.005 59.6384 114.877 55.5027 119.235 54.7749Z"/>
</mask>
<path d="M119.235 54.7749C123.593 54.047 127.769 56.9949 127.948 61.4096C128.134 66.0053 127.824 70.6079 127.024 75.1373C126.255 79.4881 121.721 81.8498 117.5 80.5444C113.279 79.2391 110.988 74.7559 111.575 70.3768C111.855 68.2817 111.997 66.1704 112 64.0566C112.005 59.6384 114.877 55.5027 119.235 54.7749Z" fill="#F0B00D" stroke="#212129" stroke-width="6" mask="url(#path-4-inside-3_3204_214)"/>
<mask id="path-5-inside-4_3204_214" fill="white">
<path d="M109.834 31.8245C113.45 29.2859 118.489 30.1412 120.557 34.0456C122.416 37.5555 123.945 41.2309 125.122 45.0241C126.432 49.2437 123.485 53.4198 119.135 54.1935C114.785 54.9673 110.694 52.0323 109.209 47.8709C108.657 46.3228 108.025 44.804 107.317 43.3206C105.414 39.3334 106.218 34.3631 109.834 31.8245Z"/>
</mask>
<path d="M109.834 31.8245C113.45 29.2859 118.489 30.1412 120.557 34.0456C122.416 37.5555 123.945 41.2309 125.122 45.0241C126.432 49.2437 123.485 53.4198 119.135 54.1935C114.785 54.9673 110.694 52.0323 109.209 47.8709C108.657 46.3228 108.025 44.804 107.317 43.3206C105.414 39.3334 106.218 34.3631 109.834 31.8245Z" fill="#F14037" stroke="#212129" stroke-width="6" mask="url(#path-5-inside-4_3204_214)"/>
<mask id="path-6-inside-5_3204_214" fill="white">
<path d="M64 120C64 124.418 60.4043 128.052 56.0205 127.501C41.9888 125.738 28.8511 119.361 18.7452 109.255C6.74284 97.2525 -4.72181e-07 80.9739 0 64C4.72181e-07 47.0261 6.74284 30.7475 18.7452 18.7452C28.8511 8.63922 41.9888 2.26205 56.0205 0.49914C60.4044 -0.0516315 64 3.58172 64 8C64 12.4183 60.3937 15.932 56.0366 16.665C46.2603 18.3097 37.1613 22.9565 30.0589 30.0589C21.0571 39.0606 16 51.2696 16 64C16 76.7304 21.0571 88.9394 30.0589 97.9411C37.1613 105.044 46.2603 109.69 56.0366 111.335C60.3937 112.068 64 115.582 64 120Z"/>
</mask>
<path d="M64 120C64 124.418 60.4043 128.052 56.0205 127.501C41.9888 125.738 28.8511 119.361 18.7452 109.255C6.74284 97.2525 -4.72181e-07 80.9739 0 64C4.72181e-07 47.0261 6.74284 30.7475 18.7452 18.7452C28.8511 8.63922 41.9888 2.26205 56.0205 0.49914C60.4044 -0.0516315 64 3.58172 64 8C64 12.4183 60.3937 15.932 56.0366 16.665C46.2603 18.3097 37.1613 22.9565 30.0589 30.0589C21.0571 39.0606 16 51.2696 16 64C16 76.7304 21.0571 88.9394 30.0589 97.9411C37.1613 105.044 46.2603 109.69 56.0366 111.335C60.3937 112.068 64 115.582 64 120Z" fill="#F04900" stroke="#212129" stroke-width="6" mask="url(#path-6-inside-5_3204_214)"/>
</g>
<defs>
<clipPath id="clip0_3204_214">
<path d="M0 64C0 28.6538 28.6538 0 64 0C99.3462 0 128 28.6538 128 64C128 99.3462 99.3462 128 64 128C28.6538 128 0 99.3462 0 64Z" fill="white"/>
</clipPath>
</defs>
</svg>
